{
  "accessors": [
    {
      "bufferView": 2,
      "componentType": 5126,
      "count": 1296,
      "max": [
        4.511962890625,
        2.819450616836548,
        7.307295799255371
      ],
      "min": [
        -4.497077941894531,
        -0.30595433712005615,
        -7.272354602813721
      ],
      "type": "VEC3"
    },
    {
      "bufferView": 2,
      "byteOffset": 15552,
      "componentType": 5126,
      "count": 1296,
      "max": [
        1.0,
        1.0,
        1.0
      ],
      "min": [
        -1.0,
        -1.0,
        -1.0
      ],
      "type": "VEC3"
    },
    {
      "bufferView": 3,
      "componentType": 5126,
      "count": 1296,
      "max": [
        1.0,
        1.0,
        1.0,
        1.0
      ],
      "min": [
        -1.0,
        -1.0,
        -1.0,
        -1.0
      ],
      "type": "VEC4"
    },
    {
      "bufferView": 1,
      "componentType": 5126,
      "count": 1296,
      "max": [
        0.9944099187850952,
        0.9955182671546936
      ],
      "min": [
        0.002205731812864542,
        0.00271081761457026
      ],
      "type": "VEC2"
    },
    {
      "bufferView": 0,
      "componentType": 5125,
      "count": 4542,
      "type": "SCALAR"
    },
    {
      "bufferView": 2,
      "byteOffset": 31104,
      "componentType": 5126,
      "count": 46,
      "max": [
        0.2512788474559784,
        0.2512787878513336,
        0.1201794371008873
      ],
      "min": [
        -0.25127920508384705,
        -0.2512786090373993,
        -0.19381216168403625
      ],
      "type": "VEC3"
    },
    {
      "bufferView": 2,
      "byteOffset": 31656,
      "componentType": 5126,
      "count": 46,
      "max": [
        1.0,
        1.0,
        1.0
      ],
      "min": [
        -1.0,
        -1.0,
        0.0
      ],
      "type": "VEC3"
    },
    {
      "bufferView": 3,
      "byteOffset": 20736,
      "componentType": 5126,
      "count": 46,
      "max": [
        0.0,
        0.027028346434235573,
        1.0,
        1.0
      ],
      "min": [
        -1.0,
        -0.023183142766356468,
        -0.36612579226493835,
        1.0
      ],
      "type": "VEC4"
    },
    {
      "bufferView": 1,
      "byteOffset": 10368,
      "componentType": 5126,
      "count": 46,
      "max": [
        0.47871217131614685,
        0.6523023247718811
      ],
      "min": [
        0.4546549320220947,
        0.5644468665122986
      ],
      "type": "VEC2"
    },
    {
      "bufferView": 0,
      "byteOffset": 18168,
      "componentType": 5125,
      "count": 183,
      "type": "SCALAR"
    },
    {
      "bufferView": 2,
      "byteOffset": 32208,
      "componentType": 5126,
      "count": 67,
      "max": [
        4.964097755078001e-08,
        0.17541156709194183,
        0.6575146913528442
      ],
      "min": [
        -0.6575146913528442,
        -1.0712274445268122e-07,
        -0.6575146913528442
      ],
      "type": "VEC3"
    },
    {
      "bufferView": 2,
      "byteOffset": 33012,
      "componentType": 5126,
      "count": 67,
      "max": [
        8.909385229571853e-08,
        1.0,
        0.9914448261260986
      ],
      "min": [
        -1.0,
        -1.0,
        -0.9914448857307434
      ],
      "type": "VEC3"
    },
    {
      "bufferView": 3,
      "byteOffset": 21472,
      "componentType": 5126,
      "count": 67,
      "max": [
        1.0,
        1.0,
        4.9462178139947355e-06,
        1.0
      ],
      "min": [
        -1.0,
        -8.909409388024869e-08,
        -4.480733878153842e-06,
        1.0
      ],
      "type": "VEC4"
    },
    {
      "bufferView": 1,
      "byteOffset": 10736,
      "componentType": 5126,
      "count": 67,
      "max": [
        0.6143047213554382,
        0.4390803873538971
      ],
      "min": [
        0.3422580063343048,
        0.22848384082317352
      ],
      "type": "VEC2"
    },
    {
      "bufferView": 0,
      "byteOffset": 18900,
      "componentType": 5125,
      "count": 216,
      "type": "SCALAR"
    },
    {
      "bufferView": 2,
      "byteOffset": 33816,
      "componentType": 5126,
      "count": 67,
      "max": [
        0.6815232038497925,
        2.7430974824937948e-08,
        0.707671582698822
      ],
      "min": [
        -0.026148492470383644,
        -0.24061819911003113,
        -0.707671582698822
      ],
      "type": "VEC3"
    },
    {
      "bufferView": 2,
      "byteOffset": 34620,
      "componentType": 5126,
      "count": 67,
      "max": [
        1.0,
        1.0,
        0.9914448857307434
      ],
      "min": [
        -1.8607258311931218e-07,
        -1.0,
        -0.9914449453353882
      ],
      "type": "VEC3"
    },
    {
      "bufferView": 3,
      "byteOffset": 22544,
      "componentType": 5126,
      "count": 67,
      "max": [
        1.0,
        1.5099588779321493e-07,
        2.0093830244150013e-06,
        1.0
      ],
      "min": [
        -1.0,
        -1.0,
        -2.4426583422609838e-06,
        1.0
      ],
      "type": "VEC4"
    },
    {
      "bufferView": 1,
      "byteOffset": 11272,
      "componentType": 5126,
      "count": 67,
      "max": [
        0.5526407361030579,
        0.44133177399635315
      ],
      "min": [
        0.4898754358291626,
        0.022583216428756714
      ],
      "type": "VEC2"
    },
    {
      "bufferView": 0,
      "byteOffset": 19764,
      "componentType": 5125,
      "count": 216,
      "type": "SCALAR"
    },
    {
      "bufferView": 2,
      "byteOffset": 35424,
      "componentType": 5126,
      "count": 457,
      "max": [
        3.848905086517334,
        -2.8782877922058105,
        -1.5555686950683594
      ],
      "min": [
        -3.638263463973999,
        -3.2838802337646484,
        -5.119519233703613
      ],
      "type": "VEC3"
    },
    {
      "bufferView": 2,
      "byteOffset": 40908,
      "componentType": 5126,
      "count": 457,
      "max": [
        0.9992479681968689,
        0.019617199897766113,
        0.9993595480918884
      ],
      "min": [
        -0.9992479681968689,
        -1.0,
        -0.9993595480918884
      ],
      "type": "VEC3"
    },
    {
      "bufferView": 3,
      "byteOffset": 23616,
      "componentType": 5126,
      "count": 457,
      "max": [
        1.0,
        0.932192862033844,
        1.0,
        1.0
      ],
      "min": [
        -1.0,
        -0.9321932196617126,
        -1.0,
        1.0
      ],
      "type": "VEC4"
    },
    {
      "bufferView": 1,
      "byteOffset": 11808,
      "componentType": 5126,
      "count": 457,
      "max": [
        0.4453924894332886,
        0.963629961013794
      ],
      "min": [
        0.006398164201527834,
        0.00620314059779048
      ],
      "type": "VEC2"
    },
    {
      "bufferView": 0,
      "byteOffset": 20628,
      "componentType": 5125,
      "count": 1740,
      "type": "SCALAR"
    },
    {
      "bufferView": 2,
      "byteOffset": 46392,
      "componentType": 5126,
      "count": 156,
      "max": [
        0.4711655080318451,
        0.28894445300102234,
        0.26675599813461304
      ],
      "min": [
        -0.47116559743881226,
        -0.1858825981616974,
        -0.1844189316034317
      ],
      "type": "VEC3"
    },
    {
      "bufferView": 2,
      "byteOffset": 48264,
      "componentType": 5126,
      "count": 156,
      "max": [
        1.0,
        1.0,
        1.0
      ],
      "min": [
        -1.0,
        -1.0,
        -1.0
      ],
      "type": "VEC3"
    },
    {
      "bufferView": 3,
      "byteOffset": 30928,
      "componentType": 5126,
      "count": 156,
      "max": [
        1.0,
        1.0,
        1.0,
        1.0
      ],
      "min": [
        -1.0,
        -1.0,
        -8.461452125629876e-06,
        1.0
      ],
      "type": "VEC4"
    },
    {
      "bufferView": 1,
      "byteOffset": 15464,
      "componentType": 5126,
      "count": 156,
      "max": [
        0.4966857433319092,
        0.9205158352851868
      ],
      "min": [
        0.3469860255718231,
        0.8532572388648987
      ],
      "type": "VEC2"
    },
    {
      "bufferView": 0,
      "byteOffset": 27588,
      "componentType": 5125,
      "count": 480,
      "type": "SCALAR"
    },
    {
      "bufferView": 2,
      "byteOffset": 50136,
      "componentType": 5126,
      "count": 186,
      "max": [
        2.6903252601623535,
        0.04998496547341347,
        3.760484218597412
      ],
      "min": [
        -3.014434814453125,
        -0.7261183261871338,
        -2.741281509399414
      ],
      "type": "VEC3"
    },
    {
      "bufferView": 2,
      "byteOffset": 52368,
      "componentType": 5126,
      "count": 186,
      "max": [
        1.0,
        1.0,
        1.0
      ],
      "min": [
        -1.0,
        -1.0,
        -1.0
      ],
      "type": "VEC3"
    },
    {
      "bufferView": 3,
      "byteOffset": 33424,
      "componentType": 5126,
      "count": 186,
      "max": [
        0.9825411438941956,
        1.0,
        1.0,
        1.0
      ],
      "min": [
        -1.0,
        -1.0,
        -1.0,
        -1.0
      ],
      "type": "VEC4"
    },
    {
      "bufferView": 1,
      "byteOffset": 16712,
      "componentType": 5126,
      "count": 186,
      "max": [
        0.9913167357444763,
        0.45576047897338867
      ],
      "min": [
        0.6044808626174927,
        0.004800164606422186
      ],
      "type": "VEC2"
    },
    {
      "bufferView": 0,
      "byteOffset": 29508,
      "componentType": 5125,
      "count": 528,
      "type": "SCALAR"
    },
    {
      "bufferView": 2,
      "byteOffset": 54600,
      "componentType": 5126,
      "count": 78,
      "max": [
        3.756091594696045,
        -0.24916547536849976,
        6.038433074951172
      ],
      "min": [
        -3.668610095977783,
        -0.3000316023826599,
        0.45402097702026367
      ],
      "type": "VEC3"
    },
    {
      "bufferView": 2,
      "byteOffset": 55536,
      "componentType": 5126,
      "count": 78,
      "max": [
        0.9994438886642456,
        0.00019259510736446828,
        0.9975097179412842
      ],
      "min": [
        -0.9975101947784424,
        -1.0,
        -0.9994382858276367
      ],
      "type": "VEC3"
    },
    {
      "bufferView": 3,
      "byteOffset": 36400,
      "componentType": 5126,
      "count": 78,
      "max": [
        0.9994384050369263,
        0.006953964941203594,
        1.0,
        1.0
      ],
      "min": [
        -0.9975089430809021,
        -0.006712912581861019,
        -0.9975093603134155,
        1.0
      ],
      "type": "VEC4"
    },
    {
      "bufferView": 1,
      "byteOffset": 18200,
      "componentType": 5126,
      "count": 78,
      "max": [
        0.9867336750030518,
        0.9831832051277161
      ],
      "min": [
        0.007204643916338682,
        0.44973692297935486
      ],
      "type": "VEC2"
    },
    {
      "bufferView": 0,
      "byteOffset": 31620,
      "componentType": 5125,
      "count": 234,
      "type": "SCALAR"
    }
  ],
  "asset": {
    "extras": {
      "author": "grimmorf (https://sketchfab.com/grimmorf)",
      "license": "CC-BY-4.0 (http://creativecommons.org/licenses/by/4.0/)",
      "source": "https://sketchfab.com/3d-models/gameboy-4a1da0cefa904c4eae895338bd6f3334",
      "title": "GAMEBOY"
    },
    "generator": "Sketchfab-12.61.0",
    "version": "2.0"
  },
  "bufferViews": [
    {
      "buffer": 0,
      "byteLength": 32556,
      "name": "floatBufferViews",
      "target": 34963
    },
    {
      "buffer": 0,
      "byteLength": 18824,
      "byteOffset": 32556,
      "byteStride": 8,
      "name": "floatBufferViews",
      "target": 34962
    },
    {
      "buffer": 0,
      "byteLength": 56472,
      "byteOffset": 51380,
      "byteStride": 12,
      "name": "floatBufferViews",
      "target": 34962
    },
    {
      "buffer": 0,
      "byteLength": 37648,
      "byteOffset": 107852,
      "byteStride": 16,
      "name": "floatBufferViews",
      "target": 34962
    }
  ],
  "buffers": [
    {
      "byteLength": 145500,
      "uri": "scene.bin"
    }
  ],
  "images": [
    {
      "uri": "textures/mat_default_baseColor.png"
    },
    {
      "uri": "textures/mat_default_metallicRoughness.png"
    },
    {
      "uri": "textures/mat_default_emissive.jpeg"
    },
    {
      "uri": "textures/mat_default_normal.png"
    }
  ],
  "materials": [
    {
      "alphaMode": "BLEND",
      "doubleSided": true,
      "emissiveFactor": [
        0.9317835366,
        0.9317835366,
        0.9317835366
      ],
      "emissiveTexture": {
        "index": 2
      },
      "name": "mat_default",
      "normalTexture": {
        "index": 3
      },
      "occlusionTexture": {
        "index": 1
      },
      "pbrMetallicRoughness": {
        "baseColorTexture": {
          "index": 0
        },
        "metallicRoughnessTexture": {
          "index": 1
        }
      }
    }
  ],
  "meshes": [
    {
      "name": "game_low_mat_default_0",
      "primitives": [
        {
          "attributes": {
            "NORMAL": 1,
            "POSITION": 0,
            "TANGENT": 2,
            "TEXCOORD_0": 3
          },
          "indices": 4,
          "material": 0,
          "mode": 4
        }
      ]
    },
    {
      "name": "Box_low_mat_default_0",
      "primitives": [
        {
          "attributes": {
            "NORMAL": 6,
            "POSITION": 5,
            "TANGENT": 7,
            "TEXCOORD_0": 8
          },
          "indices": 9,
          "material": 0,
          "mode": 4
        }
      ]
    },
    {
      "name": "Cyl_1_low_mat_default_0",
      "primitives": [
        {
          "attributes": {
            "NORMAL": 11,
            "POSITION": 10,
            "TANGENT": 12,
            "TEXCOORD_0": 13
          },
          "indices": 14,
          "material": 0,
          "mode": 4
        }
      ]
    },
    {
      "name": "Cyl_2_low_mat_default_0",
      "primitives": [
        {
          "attributes": {
            "NORMAL": 16,
            "POSITION": 15,
            "TANGENT": 17,
            "TEXCOORD_0": 18
          },
          "indices": 19,
          "material": 0,
          "mode": 4
        }
      ]
    },
    {
      "name": "Button_low_mat_default_0",
      "primitives": [
        {
          "attributes": {
            "NORMAL": 21,
            "POSITION": 20,
            "TANGENT": 22,
            "TEXCOORD_0": 23
          },
          "indices": 24,
          "material": 0,
          "mode": 4
        }
      ]
    },
    {
      "name": "Open_low_mat_default_0",
      "primitives": [
        {
          "attributes": {
            "NORMAL": 26,
            "POSITION": 25,
            "TANGENT": 27,
            "TEXCOORD_0": 28
          },
          "indices": 29,
          "material": 0,
          "mode": 4
        }
      ]
    },
    {
      "name": "Cartridge_low001_mat_default_0",
      "primitives": [
        {
          "attributes": {
            "NORMAL": 31,
            "POSITION": 30,
            "TANGENT": 32,
            "TEXCOORD_0": 33
          },
          "indices": 34,
          "material": 0,
          "mode": 4
        }
      ]
    },
    {
      "name": "Object001_mat_default_0",
      "primitives": [
        {
          "attributes": {
            "NORMAL": 36,
            "POSITION": 35,
            "TANGENT": 37,
            "TEXCOORD_0": 38
          },
          "indices": 39,
          "material": 0,
          "mode": 4
        }
      ]
    }
  ],
  "nodes": [
    {
      "children": [
        1
      ],
      "matrix": [
        1.480650544166565,
        0.0,
        0.0,
        0.0,
        0.0,
        3.2877046511149753e-16,
        -1.480650544166565,
        0.0,
        0.0,
        1.480650544166565,
        3.2877046511149753e-16,
        0.0,
        0.0,
        0.0005823837127536542,
        -0.0031474782153964043,
        1.0
      ],
      "name": "Sketchfab_model"
    },
    {
      "children": [
        2
      ],
      "matrix": [
        1.0,
        0.0,
        0.0,
        0.0,
        0.0,
        0.0,
        1.0,
        0.0,
        0.0,
        -1.0,
        0.0,
        0.0,
        0.0,
        0.0,
        0.0,
        1.0
      ],
      "name": "2450dc6b50b34a9bb6b50dbcf909195b.fbx"
    },
    {
      "children": [
        3
      ],
      "name": "RootNode"
    },
    {
      "children": [
        4,
        5,
        7,
        9,
        11,
        13,
        15,
        17
      ],
      "matrix": [
        1.0,
        0.0,
        0.0,
        0.0,
        0.0,
        2.220446049250313e-16,
        -1.0,
        0.0,
        0.0,
        1.0,
        2.220446049250313e-16,
        0.0,
        -0.011962890625,
        3.5901148319244385,
        0.4679468274116516,
        1.0
      ],
      "name": "game_low"
    },
    {
      "mesh": 0,
      "name": "game_low_mat_default_0"
    },
    {
      "children": [
        6
      ],
      "matrix": [
        1.0,
        0.0,
        0.0,
        0.0,
        0.0,
        1.0,
        0.0,
        0.0,
        0.0,
        0.0,
        1.0,
        0.0,
        -3.236008882522583,
        1.2502295970916748,
        7.248285293579102,
        1.0
      ],
      "name": "Box_low"
    },
    {
      "mesh": 1,
      "name": "Box_low_mat_default_0"
    },
    {
      "children": [
        8
      ],
      "matrix": [
        1.0,
        0.0,
        0.0,
        0.0,
        0.0,
        1.0,
        0.0,
        0.0,
        0.0,
        0.0,
        1.0,
        0.0,
        -3.924023389816284,
        0.7155443429946899,
        3.1443898677825928,
        1.0
      ],
      "name": "Cyl_1_low"
    },
    {
      "mesh": 2,
      "name": "Cyl_1_low_mat_default_0"
    },
    {
      "children": [
        10
      ],
      "matrix": [
        1.0,
        0.0,
        0.0,
        0.0,
        0.0,
        1.0,
        0.0,
        0.0,
        0.0,
        0.0,
        1.0,
        0.0,
        3.85921573638916,
        1.4385614395141602,
        2.800758123397827,
        1.0
      ],
      "name": "Cyl_2_low"
    },
    {
      "mesh": 3,
      "name": "Cyl_2_low_mat_default_0"
    },
    {
      "children": [
        12
      ],
      "matrix": [
        1.0,
        0.0,
        0.0,
        0.0,
        0.0,
        1.0,
        0.0,
        0.0,
        0.0,
        0.0,
        1.0,
        0.0,
        0.011962890625,
        2.815603256225586,
        0.012451171875,
        1.0
      ],
      "name": "Button_low"
    },
    {
      "mesh": 4,
      "name": "Button_low_mat_default_0"
    },
    {
      "children": [
        14
      ],
      "matrix": [
        1.0,
        0.0,
        0.0,
        0.0,
        0.0,
        1.0,
        0.0,
        0.0,
        0.0,
        0.0,
        1.0,
        0.0,
        0.005701350048184395,
        2.4375855922698975,
        -0.8224058151245117,
        1.0
      ],
      "name": "Open_low"
    },
    {
      "mesh": 5,
      "name": "Open_low_mat_default_0"
    },
    {
      "children": [
        16
      ],
      "matrix": [
        1.0,
        0.0,
        0.0,
        0.0,
        0.0,
        1.0,
        0.0,
        0.0,
        0.0,
        0.0,
        1.0,
        0.0,
        0.12768173217773438,
        2.523751735687256,
        3.4130284786224365,
        1.0
      ],
      "name": "Cartridge_low001"
    },
    {
      "mesh": 6,
      "name": "Cartridge_low001_mat_default_0"
    },
    {
      "children": [
        18
      ],
      "name": "Object001"
    },
    {
      "mesh": 7,
      "name": "Object001_mat_default_0"
    }
  ],
  "samplers": [
    {
      "magFilter": 9729,
      "minFilter": 9987,
      "wrapS": 10497,
      "wrapT": 10497
    }
  ],
  "scene": 0,
  "scenes": [
    {
      "name": "Sketchfab_Scene",
      "nodes": [
        0
      ]
    }
  ],
  "textures": [
    {
      "sampler": 0,
      "source": 0
    },
    {
      "sampler": 0,
      "source": 1
    },
    {
      "sampler": 0,
      "source": 2
    },
    {
      "sampler": 0,
      "source": 3
    }
  ]
}
